<?xml version="1.0" standalone="no"?>
<!DOCTYPE svg PUBLIC "-//W3C//DTD SVG 20010904//EN"
 "http://www.w3.org/TR/2001/REC-SVG-20010904/DTD/svg10.dtd">
<svg version="1.0" xmlns="http://www.w3.org/2000/svg"
 width="512.000000pt" height="512.000000pt" viewBox="0 0 512.000000 512.000000"
 preserveAspectRatio="xMidYMid meet">

<g transform="translate(0.000000,512.000000) scale(0.100000,-0.100000)"
fill="#000000" stroke="none">
<path d="M3943 4723 c-16 -6 -17 -53 -2 -53 6 0 55 -45 110 -101 l100 -101
119 12 c66 7 120 16 120 20 0 21 -117 108 -206 153 -80 40 -216 80 -241 70z"/>
<path d="M530 3322 c0 -46 92 -196 168 -275 92 -95 245 -196 278 -183 29 11
24 36 -21 97 -57 77 -107 180 -136 282 l-23 77 -36 0 c-19 0 -79 3 -132 7 -67
4 -98 3 -98 -5z"/>
<path d="M1945 2372 c169 -103 431 -173 717 -192 315 -21 587 27 793 140 137
76 205 69 -715 70 -802 0 -824 -1 -795 -18z"/>
</g>
</svg>
